<?xml version="1.0" standalone="no"?><!DOCTYPE svg PUBLIC "-//W3C//DTD SVG 1.1//EN" "http://www.w3.org/Graphics/SVG/1.1/DTD/svg11.dtd"><svg t="1613895975538" class="icon" viewBox="0 0 1024 1024" version="1.1" xmlns="http://www.w3.org/2000/svg" p-id="2743" xmlns:xlink="http://www.w3.org/1999/xlink" width="200" height="200"><defs><style type="text/css"></style></defs><path d="M431.542857 106.057143L18.285714 822.857143c-36.571429 62.171429 7.314286 142.628571 80.457143 142.628571h826.514286c73.142857 0 117.028571-80.457143 80.457143-142.628571L592.457143 106.057143c-36.571429-62.171429-124.342857-62.171429-160.914286 0z" fill="#F9C014" p-id="2744"></path><path d="M512 789.942857m-73.142857 0a73.142857 73.142857 0 1 0 146.285714 0 73.142857 73.142857 0 1 0-146.285714 0Z" fill="#FFFFFF" p-id="2745"></path><path d="M504.685714 654.628571c-40.228571 0-73.142857-32.914286-73.142857-73.142857v-256c0-40.228571 32.914286-73.142857 73.142857-73.142857s73.142857 32.914286 73.142857 73.142857v256c0 40.228571-32.914286 73.142857-73.142857 73.142857z" fill="#FFFFFF" p-id="2746"></path></svg>